<svg xmlns="http://www.w3.org/2000/svg" width="800" height="800" viewBox="0 0 800 800">
<defs>
  <linearGradient id="sh" x1="0" y1="0" x2="1" y2="1">
    <stop offset="0" stop-color="#4FC3F7"/><stop offset="1" stop-color="#7C6CFF"/>
  </linearGradient>
  <radialGradient id="glow" cx="0.5" cy="0.42" r="0.65">
    <stop offset="0" stop-color="#16294A"/><stop offset="1" stop-color="#0B1120"/>
  </radialGradient>
</defs>
<rect width="800" height="800" rx="120" fill="url(#glow)"/>
<path d="M400 130 L630 215 L630 430 C630 565 525 655 400 700 C275 655 170 565 170 430 L170 215 Z"
      fill="none" stroke="url(#sh)" stroke-width="26" stroke-linejoin="round"/>
<line x1="400" y1="385" x2="400" y2="235" stroke="#4FC3F7" stroke-width="7" stroke-linecap="round" opacity="0.85"/><line x1="400" y1="385" x2="270" y2="310" stroke="#4FC3F7" stroke-width="7" stroke-linecap="round" opacity="0.85"/><line x1="400" y1="385" x2="270" y2="460" stroke="#4FC3F7" stroke-width="7" stroke-linecap="round" opacity="0.85"/><line x1="400" y1="385" x2="400" y2="535" stroke="#4FC3F7" stroke-width="7" stroke-linecap="round" opacity="0.85"/><line x1="400" y1="385" x2="530" y2="460" stroke="#4FC3F7" stroke-width="7" stroke-linecap="round" opacity="0.85"/><line x1="400" y1="385" x2="530" y2="310" stroke="#4FC3F7" stroke-width="7" stroke-linecap="round" opacity="0.85"/>
<circle cx="400" cy="235" r="17" fill="#4FC3F7"/><circle cx="270" cy="310" r="17" fill="#4FC3F7"/><circle cx="270" cy="460" r="17" fill="#4FC3F7"/><circle cx="400" cy="535" r="17" fill="#4FC3F7"/><circle cx="530" cy="460" r="17" fill="#4FC3F7"/><circle cx="530" cy="310" r="17" fill="#4FC3F7"/>
<circle cx="400" cy="385" r="30" fill="#FFD166"/>
</svg>